<svg width="16" height="16" viewBox="0 0 16 16" fill="none" xmlns="http://www.w3.org/2000/svg">
<g clip-path="url(#clip0_4_39)">
<path fill-rule="evenodd" clip-rule="evenodd" d="M8.14658 2C8.05307 2.15474 8 2.32321 8 2.50231V7.49767C8 8.6754 10.2947 9.39366 11.2936 8.77009L14 7.08053V12C14 13.1046 13.1046 14 12 14H4C2.89543 14 2 13.1046 2 12V4C2 2.89543 2.89543 2 4 2H8.14658ZM12.7797 2.15769L13.3102 2.48882C13.1529 2.3524 12.9742 2.2401 12.7797 2.15769ZM14 4.98242C13.9946 4.82523 13.9163 4.67021 13.7651 4.57583L9.76421 2.07817C9.4313 1.87032 8.99972 2.10975 8.99972 2.50231V7.49767C8.99972 7.89024 9.4313 8.12963 9.76421 7.92184L13.7651 5.42409C13.9163 5.32976 13.9946 5.17476 14 5.01757V4.98242Z" fill="#9999FF"/>
<path fill-rule="evenodd" clip-rule="evenodd" d="M5 7.00106L7.5 7.00103V6.00003L4 6.00006V12H5V9H6.5V8H5V7.00106Z" fill="black"/>
<path fill-rule="evenodd" clip-rule="evenodd" d="M8.99884 6H9.99884V11H12.4988V12H8.99884V6Z" fill="black"/>
<path fill-rule="evenodd" clip-rule="evenodd" d="M9 1.50239C9 0.324652 10.2951 -0.393678 11.2942 0.229912L15.2962 2.72774C16.2372 3.31514 16.2372 4.68534 15.2962 5.27274L11.2942 7.77054C10.2951 8.39414 9 7.67584 9 6.49804V1.50239ZM10.7647 1.07823C10.4317 0.870372 10 1.10981 10 1.50239V6.49804C10 6.89064 10.4317 7.13004 10.7647 6.92224L14.7667 4.42434C15.0804 4.22864 15.0804 3.77184 14.7667 3.57604L10.7647 1.07823Z" fill="#208A3C"/>
<path d="M10 1.50238C10 1.1098 10.4317 0.870363 10.7647 1.07822L14.7667 3.57604C15.0804 3.77184 15.0804 4.22864 14.7667 4.42434L10.7647 6.92224C10.4317 7.13004 10 6.89064 10 6.49804V1.50238Z" fill="#F2FCF3"/>
</g>
<defs>
<clipPath id="clip0_4_39">
<rect width="16" height="16" fill="white"/>
</clipPath>
</defs>
</svg>
