<svg xmlns="http://www.w3.org/2000/svg" version="1.1" preserveAspectRatio="none" x="0px" y="0px" width="16px" height="16px" viewBox="0 0 16 16">
    <path fill="#B99BF8" fill-opacity="0.6980392156862745" stroke="none" d="M 1 9 L 1 16 10 16 10 9 1 9 Z"/>
    <g transform="matrix( 1, 0, 0, 1, 0,8.95) ">
        <path fill="#62B543" stroke="none" d="M 11 0.05 L 11 7 16 3.65 16 3.45 11 0.05 Z"/>
    </g>
    <path fill="#9AA7B0" fill-opacity="0.8" stroke="none" d="M 7 5 L 7 1 3 5 7 5 Z"/>
    <path fill="#9AA7B0" fill-opacity="0.8" stroke="none" d="M 13 1 L 8 1 8 6 3 6 3 8 13 8 13 1 Z"/>
    <g transform="matrix( 1, 0, 0, 1, -7,0) ">
        <path fill="#231F20" fill-opacity="0.6980392156862745" stroke="none" d="M 12 11.05 L 12 10 9 10 9 15 10 15 10 13 11.75 13 11.75 12 10 12 10 11.05 12 11.05 Z"/>
    </g>
    <g transform="matrix( 1, 0, 0, 1, -6,0) ">
        <path fill="#231F20" fill-opacity="0.6980392156862745" stroke="none" d="M 12 10 L 12 15 15.5 15 15.5 14 13 14 13 10 12 10 Z"/>
    </g>
</svg>
